<svg width="32" height="32" viewBox="0 0 32 32" fill="none" xmlns="http://www.w3.org/2000/svg">
<g id="Cloud">
<path id="Union" d="M18.6438 13.343L17.8009 13.881L18.6438 13.343ZM19.6493 14.884L18.8711 15.5119L19.6493 14.884ZM21.6523 15.9816L21.5417 16.9755L21.6523 15.9816ZM11.9869 26.6424L11.9126 25.6452L11.9869 26.6424ZM11.9126 25.6452C11.7216 25.6594 11.5284 25.6667 11.3334 25.6667V27.6667C11.5781 27.6667 11.8208 27.6576 12.0613 27.6396L11.9126 25.6452ZM11.3334 25.6667C7.09917 25.6667 3.66669 22.2342 3.66669 18H1.66669C1.66669 23.3388 5.9946 27.6667 11.3334 27.6667V25.6667ZM3.66669 18C3.66669 13.7658 7.09917 10.3333 11.3334 10.3333V8.33334C5.9946 8.33334 1.66669 12.6613 1.66669 18H3.66669ZM11.3334 10.3333C14.0502 10.3333 16.4377 11.7457 17.8009 13.881L19.4866 12.8049C17.7716 10.1184 14.7613 8.33334 11.3334 8.33334V10.3333ZM22.6667 17C24.3235 17 25.6667 18.3432 25.6667 20H27.6667C27.6667 17.2386 25.4281 15 22.6667 15V17ZM25.6667 20V22.6667H27.6667V20H25.6667ZM25.6667 22.6667C25.6667 24.3235 24.3235 25.6667 22.6667 25.6667V27.6667C25.4281 27.6667 27.6667 25.4281 27.6667 22.6667H25.6667ZM22.6667 25.6667H12.0122V27.6667H22.6667V25.6667ZM12.0122 25.6667C12.5577 25.6667 13 26.109 13 26.6545H11C11 27.2135 11.4532 27.6667 12.0122 27.6667V25.6667ZM17.8009 13.881C18.1002 14.35 18.328 14.7069 18.4939 14.9623C18.646 15.1967 18.7789 15.3977 18.8711 15.5119L20.4275 14.256C20.4298 14.2588 20.4116 14.2354 20.3602 14.1596C20.3136 14.0908 20.2517 13.997 20.1714 13.8733C20.0107 13.6258 19.788 13.2769 19.4866 12.8049L17.8009 13.881ZM22.6667 15C22.0621 15 21.8571 14.9982 21.7628 14.9877L21.5417 16.9755C21.7781 17.0018 22.1392 17 22.6667 17V15ZM18.8711 15.5119C19.2121 15.9345 19.5525 16.3187 20.0238 16.5769C20.4951 16.8352 21.002 16.9154 21.5417 16.9755L21.7628 14.9877C21.2418 14.9298 21.0824 14.8765 20.9849 14.823C20.8875 14.7696 20.7567 14.6639 20.4275 14.256L18.8711 15.5119ZM12.0613 27.6396C11.4893 27.6823 11 27.2299 11 26.6545H13C13 26.065 12.4987 25.6015 11.9126 25.6452L12.0613 27.6396Z" fill="#33363F"/>
<path id="Ellipse 92" d="M23.838 17.2031C24.8189 16.9823 25.7174 16.4887 26.4299 15.7792C27.1424 15.0697 27.6398 14.1733 27.8648 13.1933C28.0897 12.2133 28.0331 11.1896 27.7014 10.2404C27.3696 9.29126 26.7764 8.45518 25.9899 7.82864C25.2035 7.2021 24.256 6.81064 23.2567 6.6994C22.2574 6.58816 21.247 6.76167 20.342 7.19993C19.4371 7.63818 18.6745 8.32333 18.1421 9.17633C17.6098 10.0293 17.3294 11.0154 17.3334 12.0209" stroke="#33363F" stroke-width="2"/>
</g>
</svg>
