<svg width="36" height="36" viewBox="0 0 36 36" fill="none" xmlns="http://www.w3.org/2000/svg">
<g id="desktop">
<path id="Rectangle 3957" d="M5.5 12C5.5 10.5575 5.50212 9.57625 5.60092 8.84143C5.69584 8.13538 5.86322 7.80836 6.08579 7.58579C6.30836 7.36322 6.63538 7.19584 7.34143 7.10092C8.07625 7.00212 9.05752 7 10.5 7H25.5C26.9425 7 27.9237 7.00212 28.6586 7.10092C29.3646 7.19584 29.6916 7.36322 29.9142 7.58579L30.6153 6.88466L29.9142 7.58579C30.1368 7.80836 30.3042 8.13538 30.3991 8.84143C30.4979 9.57625 30.5 10.5575 30.5 12V24.5H5.5V12Z" stroke="white" stroke-width="2"/>
<path id="Rectangle 3958" d="M5.5 24.5C4.39543 24.5 3.5 25.3954 3.5 26.5C3.5 28.1569 4.84315 29.5 6.5 29.5H29.5C31.1569 29.5 32.5 28.1569 32.5 26.5C32.5 25.3954 31.6046 24.5 30.5 24.5H5.5Z" stroke="white" stroke-width="2"/>
</g>
</svg>
