<svg width="20" height="24" viewBox="0 0 20 24" fill="none" xmlns="http://www.w3.org/2000/svg">
<path d="M8.39108 19.6972L8.78869 20.6147H8.78869L8.39108 19.6972ZM12.0065 18.1305L11.6089 17.213H11.6089L12.0065 18.1305ZM15.9464 7.26959L16.7391 7.8793L15.9464 7.26959ZM12.515 11.7304L11.7224 11.1207L12.515 11.7304ZM7.4849 11.7304L8.27753 11.1207L7.4849 11.7304ZM4.05351 7.26959L3.26088 7.8793L4.05351 7.26959ZM4.84613 5H15.1538V3H4.84613V5ZM4.84613 6.65988V5H2.84613V6.65988H4.84613ZM8.27753 11.1207L4.84613 6.65988L3.26088 7.8793L6.69228 12.3401L8.27753 11.1207ZM6.69228 12.3401V19.2384H8.69228V12.3401H6.69228ZM6.69228 19.2384C6.69228 20.3179 7.79822 21.0439 8.78869 20.6147L7.99348 18.7796C8.32363 18.6366 8.69228 18.8786 8.69228 19.2384H6.69228ZM8.78869 20.6147L12.4041 19.0481L11.6089 17.213L7.99347 18.7796L8.78869 20.6147ZM12.4041 19.0481C12.9526 18.8104 13.3077 18.2696 13.3077 17.6717H11.3077C11.3077 17.4725 11.426 17.2922 11.6089 17.213L12.4041 19.0481ZM13.3077 17.6717V12.3401H11.3077V17.6717H13.3077ZM15.1538 6.65988L11.7224 11.1207L13.3077 12.3401L16.7391 7.8793L15.1538 6.65988ZM15.1538 5V6.65988H17.1538V5H15.1538ZM16.7391 7.8793C17.008 7.52968 17.1538 7.10097 17.1538 6.65988H15.1538L16.7391 7.8793ZM13.3077 12.3401V12.3401L11.7224 11.1207C11.4535 11.4703 11.3077 11.899 11.3077 12.3401H13.3077ZM6.69228 12.3401H8.69228C8.69228 11.899 8.54646 11.4703 8.27753 11.1207L6.69228 12.3401ZM2.84613 6.65988C2.84613 7.10097 2.99195 7.52968 3.26088 7.8793L4.84613 6.65988H4.84613H2.84613ZM15.1538 5H15.1538H17.1538C17.1538 3.89543 16.2584 3 15.1538 3V5ZM4.84613 3C3.74156 3 2.84613 3.89543 2.84613 5H4.84613V5V3Z" fill="#33363F"/>
</svg>
