<svg width="42" height="42" viewBox="0 0 42 42" fill="none" xmlns="http://www.w3.org/2000/svg">
<g id="Linearicons_rocket 1" clip-path="url(#clip0_15_5)">
<path id="Vector" d="M28.35 18.9C25.4562 18.9 23.1 16.5438 23.1 13.65C23.1 10.7562 25.4562 8.40002 28.35 8.40002C31.2438 8.40002 33.6 10.7562 33.6 13.65C33.6 16.5438 31.2438 18.9 28.35 18.9ZM28.35 10.5C26.6133 10.5 25.2 11.9133 25.2 13.65C25.2 15.3867 26.6133 16.8 28.35 16.8C30.0867 16.8 31.5 15.3867 31.5 13.65C31.5 11.9133 30.0867 10.5 28.35 10.5Z" fill="white"/>
<path id="Vector_2" d="M1.04997 42C0.776972 42 0.508173 41.8929 0.306573 41.6934C0.0188725 41.4057 -0.0777275 40.9752 0.0629725 40.593C3.29487 31.7079 6.69267 27.2013 10.1598 27.2013C11.3043 27.2013 12.3732 27.6927 13.3413 28.6587C14.8701 30.1875 14.9247 31.71 14.7021 32.718C14.0007 35.8848 9.52767 38.9865 1.40907 41.9391C1.29147 41.9811 1.16967 42 1.04997 42ZM10.1619 29.2992C9.12237 29.2992 7.89807 30.2106 6.62337 31.9347C5.36967 33.6294 4.10967 36.0444 2.86857 39.1314C5.67207 38.0037 7.92537 36.8592 9.58647 35.7189C11.8272 34.1796 12.4908 32.9889 12.6525 32.2623C12.8142 31.5357 12.5538 30.8406 11.8566 30.1434C11.2896 29.5764 10.7352 29.3013 10.1598 29.3013L10.1619 29.2992Z" fill="white"/>
<path id="Vector_3" d="M40.95 0.000146875C35.5005 0.000146875 30.6453 0.924147 26.5146 2.74695C23.1105 4.25055 20.1957 6.35895 17.85 9.01755C17.4132 9.51315 17.0079 10.015 16.632 10.519C14.8218 10.6387 12.9696 11.359 11.1216 12.661C9.5571 13.7614 7.9863 15.286 6.4491 17.1907C3.8661 20.3911 2.2785 23.5474 2.2113 23.6797C1.9824 24.1396 2.1189 24.6982 2.5347 24.9985C2.7195 25.1329 2.9358 25.198 3.15 25.198C3.4188 25.198 3.6876 25.0951 3.8913 24.8935C3.9018 24.883 4.9056 23.896 6.6171 22.9279C8.0283 22.1299 10.2039 21.1912 12.8352 21.0253C13.5009 22.7284 15.4056 24.7654 16.3191 25.6789C17.2326 26.5924 19.2696 28.4971 20.9727 29.1628C20.8068 31.7941 19.8681 33.9697 19.0701 35.3809C18.0999 37.0945 17.115 38.0962 17.1066 38.1046C16.7433 38.4679 16.6971 39.0433 16.9974 39.4612C17.2011 39.7426 17.5203 39.898 17.85 39.898C18.0096 39.898 18.1692 39.8623 18.3183 39.7867C18.4506 39.7195 21.6069 38.1319 24.8073 35.5489C26.712 34.0117 28.2366 32.4409 29.337 30.8764C30.639 29.0263 31.3572 27.1762 31.479 25.366C31.9809 24.9922 32.4828 24.5869 32.9805 24.148C35.6391 21.8023 37.7475 18.8875 39.2511 15.4834C41.0739 11.3548 41.9979 6.49755 41.9979 1.04805V-0.00195312H40.9479L40.95 0.000146875ZM6.5247 20.5969C8.526 17.6926 11.5857 14.0911 15.0339 12.9592C13.671 15.3469 12.9654 17.5393 12.7113 18.9295C10.2774 19.0786 8.1795 19.7863 6.5247 20.5969ZM21.4053 35.4691C22.2159 33.8143 22.9236 31.7185 23.0706 29.2867C24.4587 29.0326 26.6532 28.327 29.0388 26.9662C27.9048 30.4081 24.3075 33.4678 21.4053 35.4691ZM31.5924 22.5751C27.2244 26.4286 22.701 27.3001 22.05 27.3001C22.0458 27.3001 21.6153 27.2917 20.4561 26.4748C19.6476 25.9057 18.7047 25.0951 17.8059 24.1963C16.9071 23.2975 16.0965 22.3546 15.5274 21.5461C14.7105 20.3869 14.7021 19.9564 14.7021 19.9522C14.7021 19.3012 15.5736 14.7778 19.4271 10.4098C24.0387 5.18505 31.0968 2.32695 39.8895 2.11485C39.6774 10.9075 36.8214 17.9656 31.5945 22.5772L31.5924 22.5751Z" fill="white"/>
</g>
<defs>
<clipPath id="clip0_15_5">
<rect width="42" height="42" fill="white"/>
</clipPath>
</defs>
</svg>
